<svg width="1440" height="750" viewBox="0 0 1440 750" fill="none" xmlns="http://www.w3.org/2000/svg">
<path fill-rule="evenodd" clip-rule="evenodd" d="M1709 0H-648V750H1709V0ZM-574 15H-626V75H-574V15ZM1513 15H1565V75H1513V15ZM-623 675H-571V735H-623V675ZM-478 675H-530V735H-478V675ZM-437 675H-385V735H-437V675ZM-292 675H-344V735H-292V675ZM-251 675H-199V735H-251V675ZM-106 675H-158V735H-106V675ZM-65 675H-13V735H-65V675ZM80 675H28V735H80V675ZM121 675H173V735H121V675ZM266 675H214V735H266V675ZM307 675H359V735H307V675ZM452 675H400V735H452V675ZM493 675H545V735H493V675ZM638 675H586V735H638V675ZM679 675H731V735H679V675ZM824 675H772V735H824V675ZM865 675H917V735H865V675ZM1010 675H958V735H1010V675ZM1051 675H1103V735H1051V675ZM1196 675H1144V735H1196V675ZM1237 675H1289V735H1237V675ZM1382 675H1330V735H1382V675ZM1423 675H1475V735H1423V675ZM1516 675H1568V735H1516V675ZM1658 675H1606V735H1658V675ZM1472 15H1420V75H1472V15ZM1327 15H1379V75H1327V15ZM1286 15H1234V75H1286V15ZM1141 15H1193V75H1141V15ZM1100 15H1048V75H1100V15ZM955 15H1007V75H955V15ZM914 15H862V75H914V15ZM769 15H821V75H769V15ZM728 15H676V75H728V15ZM583 15H635V75H583V15ZM542 15H490V75H542V15ZM397 15H449V75H397V15ZM356 15H304V75H356V15ZM211 15H263V75H211V15ZM170 15H118V75H170V15ZM25 15H77V75H25V15ZM-16 15H-68V75H-16V15ZM-161 15H-109V75H-161V15ZM-202 15H-254V75H-202V15ZM-347 15H-295V75H-347V15ZM-388 15H-440V75H-388V15ZM-533 15H-481V75H-533V15ZM1606 15H1658V75H1606V15Z" fill="#0D0D0D"/>
</svg>
